<?xml version="1.0" encoding="utf-8"?>
<!-- Generator: Adobe Illustrator 16.0.0, SVG Export Plug-In . SVG Version: 6.00 Build 0)  -->
<!DOCTYPE svg PUBLIC "-//W3C//DTD SVG 1.1//EN" "http://www.w3.org/Graphics/SVG/1.1/DTD/svg11.dtd">
<svg version="1.1" id="Layer_1" xmlns="http://www.w3.org/2000/svg" xmlns:xlink="http://www.w3.org/1999/xlink" x="0px" y="0px"
	 width="1920px" height="1080px" viewBox="0 0 1920 1080" enable-background="new 0 0 1920 1080" xml:space="preserve">
<rect x="485.45" y="626.797" fill="none" width="957.1" height="114.659"/>
<text transform="matrix(1 0 0 1 585.5015 684.126)" fill="#285B85" font-family="'Montserrat-SemiBold'" font-size="90.9883">FINANCIAL</text>
<text transform="matrix(1 0 0 1 1091.4775 684.126)" font-family="'Montserrat-SemiBold'" font-size="90.9883"> </text>
<text transform="matrix(1 0 0 1 1112.7695 684.126)" fill="#86C773" font-family="'Montserrat-SemiBold'" font-size="90.9883">DIET</text>
<circle fill="none" stroke="#85C773" stroke-width="10" stroke-miterlimit="10" cx="944.342" cy="439.983" r="132.369"/>
<circle fill="none" stroke="#85C773" stroke-width="10" stroke-miterlimit="10" cx="944.342" cy="439.982" r="112.12"/>
<path fill="#275B85" d="M987.666,374.02c1.795,1.022,2.224,2.66,2.181,4.589c-0.061,2.699-0.004,5.401-0.018,8.102
	c-0.014,3.06-1.145,4.208-4.215,4.216c-6.893,0.018-13.782,0.005-20.674,0.006c-0.555,0-1.109,0-1.905,0
	c0.28,0.507,0.439,0.857,0.655,1.167c2.544,3.62,4.31,7.587,5.253,11.902c0.25,1.146,0.716,1.562,1.944,1.541
	c4.889-0.08,9.777-0.036,14.667-0.031c3.462,0.003,4.425,0.953,4.435,4.36c0.006,2.747,0.008,5.495-0.001,8.242
	c-0.011,3.277-0.99,4.268-4.229,4.271c-4.936,0.005-9.871,0.024-14.807-0.019c-0.962-0.008-1.336,0.224-1.536,1.25
	c-2.949,15.143-12.151,24.971-26.34,30.25c-4.567,1.699-9.434,2.6-14.157,3.865c0.408,0.462,1.002,1.155,1.621,1.827
	c15.46,16.79,29.952,34.406,44.435,52.03c1.659,2.02,1.182,3.938-1.283,5.515c-7.358,0-14.718,0-22.077,0
	c-0.72-0.701-1.505-1.349-2.147-2.114c-16.095-19.189-32.3-38.282-49.396-56.599c-0.942-1.01-1.394-2.126-1.377-3.516
	c0.041-3.817-0.007-7.636,0.021-11.453c0.02-2.755,1.276-3.979,4.033-3.987c4.004-0.012,8.023,0.205,12.008-0.068
	c4.387-0.303,8.813-0.74,13.098-1.675c5.901-1.288,11.064-4.1,14.658-9.203c1.275-1.812,2.276-3.771,2.708-6.104
	c-0.712,0-1.268,0-1.823,0c-13.361,0-26.724,0-40.086-0.001c-0.559,0-1.119,0.014-1.674-0.039c-1.592-0.146-2.781-1.172-2.815-2.749
	c-0.086-3.766-0.086-7.537,0.003-11.302c0.037-1.537,1.159-2.518,2.697-2.692c0.645-0.073,1.299-0.088,1.948-0.088
	c12.851-0.005,25.7-0.004,38.55-0.004c0.539,0,1.076,0,1.848,0c-1.721-3.299-4.061-5.585-7.051-7.25
	c-5.434-3.022-11.379-3.946-17.463-4.098c-5.491-0.137-10.987-0.049-16.48-0.07c-2.898-0.011-4.149-1.254-4.161-4.164
	c-0.018-3.957,0.038-7.916-0.022-11.872c-0.027-1.871,0.607-3.244,2.343-4.036C929.912,374.02,958.788,374.02,987.666,374.02z"/>
<path fill="#85C773" d="M1134.062,315.842c12.348,0,23.425,19.887,23.425,39.544c0,15.238,0.137,22.358-7.761,30.054
	c-2.505,2.439-5.197,4.91-7.64,6.799c-1.051,1.376-2.098,3.335-2.199,5.797l-0.761,23.747l5.122,107.888
	c0.004,0.026,0.015,0.051,0.015,0.076c0,1.254-3.769,2.271-8.417,2.271c-4.649,0-8.418-1.017-8.418-2.271
	c0-0.021,0.011-0.044,0.014-0.067l3.995-108.264l0.196-23.399c0,0,0.24-2.479-2.215-5.777c-2.212-1.6-5.535-3.321-7.501-6.026
	c-4.355-5.989-9.147-16.552-9.147-30.826C1112.769,335.729,1121.712,315.842,1134.062,315.842z"/>
<path fill="#85C773" d="M752.458,328.583l-0.331,43.231c-0.005,0.004-0.007,0.007-0.009,0.011c-0.011,0.846-0.699,1.527-1.546,1.527
	c-0.802,0-1.457-0.614-1.531-1.397c-0.013-0.021-0.021-0.03-0.021-0.03l-0.773-43.342c0.168-3.502-1.792-4.228-1.792-4.228
	c-2.033,0.725-1.978,4.339-1.978,4.339l-1.661,43.34c-0.009,0.027-0.021,0.047-0.028,0.076c0,0.002,0.002,0.004,0.002,0.008
	c0,0.434-0.23,0.798-0.559,1.021c-0.176,0.161-0.355,0.214-0.532,0.198c-0.043,0.005-0.08,0.025-0.125,0.025
	c-0.671,0-1.215-0.559-1.215-1.244c0-0.037,0.017-0.066,0.019-0.104l1.106-43.543c-1.419-7.818-3.738-0.198-3.738-0.198
	l-2.106,20.466l-3.023,32.386c-0.157,1.675-0.375,3.798-0.164,5.771c0.136,1.253,0.443,2.441,1.05,3.416
	c1.026,1.648,2.662,2.232,4.103,3.341c0.002,0.003,3.877,2.991,3.877,2.991c3.55,2.771,2.994,5.986,2.994,5.986l-4.282,135
	c-0.003,0.021-0.013,0.043-0.013,0.065c0,1.272,3.835,2.306,8.563,2.306c4.727,0,8.561-1.032,8.561-2.306
	c0-0.041-0.013-0.081-0.021-0.119l-3.05-135.059c0.705-4.801,4.802-6.896,4.802-6.896l2.514-1.638
	c4.437-2.327,4.726-6.556,4.726-6.556c0-1.923,0.139-3.958,0.148-5.921c0.022-3.52-0.277-7.013-0.488-10.523
	c-0.258-4.275-0.541-8.554-0.834-12.825c-0.315-4.609-0.598-9.22-0.886-13.83c-0.231-3.704-0.473-7.408-0.703-11.112
	c-0.095-1.502-0.193-3.005-0.291-4.506c-2.54-8.202-3.999,0.206-3.999,0.206l0.887,43.12c-0.006,0.009-0.014,0.015-0.021,0.021
	c-0.06,0.766-0.692,1.37-1.475,1.37c-0.82,0-1.487-0.667-1.487-1.485c0-0.02,0.004-0.035,0.007-0.053
	c-0.011-0.043-0.02-0.074-0.02-0.074l-0.774-43.01C754.147,318.621,752.458,328.583,752.458,328.583z"/>
</svg>
